Exact Audio Copy V0.99 prebeta 5 from 4. May 2009

EAC extraction logfile from 27. April 2010, 17:47

B.o.B / B.o.B Presents: The Adventures of Bobby Ray

Used drive  : _NEC    DVD+-RW ND-6650A   Adapter: 1  ID: 0

Read mode               : Secure
Utilize accurate stream : Yes
Defeat audio cache      : Yes
Make use of C2 pointers : No

Read offset correction                      : 48
Overread into Lead-In and Lead-Out          : No
Fill up missing offset samples with silence : Yes
Delete leading and trailing silent blocks   : No
Null samples used in CRC calculations       : Yes
Used interface                              : Native Win32 interface for Win NT & 2000
Gap handling                                : Appended to previous track

Used output format              : User Defined Encoder
Selected bitrate                : 320 kBit/s
Quality                         : High
Add ID3 tag                     : No
Command line compressor         : C:Program FilesExact Audio CopyFlacflac.exe
Additional command line options : -V -8 -T "artist=%a" -T "title=%t" -T "album=%g" -T "date=%y" -T "tracknumber=%n" -T "genre=%m" %s


TOC of the extracted CD

     Track |   Start  |  Length  | Start sector | End sector 
    ---------------------------------------------------------
        1  |  0:00.00 |  4:35.29 |         0    |    20653   
        2  |  4:35.29 |  4:29.47 |     20654    |    40875   
        3  |  9:05.01 |  3:33.69 |     40876    |    56919   
        4  | 12:38.70 |  3:01.08 |     56920    |    70502   
        5  | 15:40.03 |  4:17.69 |     70503    |    89846   
        6  | 19:57.72 |  4:53.04 |     89847    |   111825   
        7  | 24:51.01 |  3:26.68 |    111826    |   127343   
        8  | 28:17.69 |  3:16.12 |    127344    |   142055   
        9  | 31:34.06 |  3:41.67 |    142056    |   158697   
       10  | 35:15.73 |  4:04.41 |    158698    |   177038   
       11  | 39:20.39 |  3:23.41 |    177039    |   192304   
       12  | 42:44.05 |  5:19.33 |    192305    |   216262   
       13  | 48:03.38 |  4:13.49 |    216263    |   235286   
       14  | 52:17.12 |  3:18.59 |    235287    |   250195   


Track  1

     Filename F:B.o.B -  - B.o.B Presents- The Adventures of Bobby Ray 1 - Don't Let Me Fall - B.o.B.wav

     Pre-gap length  0:00:02.00

     Peak level 97.7 %
     Track quality 100.0 %
     Test CRC 4075D51D
     Copy CRC 4075D51D
     Track not present in AccurateRip database
     Copy OK

Track  2

     Filename F:B.o.B -  - B.o.B Presents- The Adventures of Bobby Ray 2 - Nothin' On You (feat. Bruno Mars) - B.o.B.wav

     Peak level 100.0 %
     Track quality 99.9 %
     Test CRC 52111CCD
     Copy CRC 52111CCD
     Track not present in AccurateRip database
     Copy OK

Track  3

     Filename F:B.o.B -  - B.o.B Presents- The Adventures of Bobby Ray 3 - Past My Shades (feat. Lupe Fiasco) - B.o.B.wav

     Peak level 99.8 %
     Track quality 100.0 %
     Test CRC BBF41CC8
     Copy CRC BBF41CC8
     Track not present in AccurateRip database
     Copy OK

Track  4

     Filename F:B.o.B -  - B.o.B Presents- The Adventures of Bobby Ray 4 - Airplanes (feat. Hayley Williams of Paramore) - B.o.B.wav

     Peak level 99.8 %
     Track quality 100.0 %
     Test CRC 5B46C206
     Copy CRC 5B46C206
     Track not present in AccurateRip database
     Copy OK

Track  5

     Filename F:B.o.B -  - B.o.B Presents- The Adventures of Bobby Ray 5 - Bet I (feat. T.I. & Playboy Tre) - B.o.B.wav

     Peak level 97.7 %
     Track quality 100.0 %
     Test CRC 16503DE8
     Copy CRC 16503DE8
     Track not present in AccurateRip database
     Copy OK

Track  6

     Filename F:B.o.B -  - B.o.B Presents- The Adventures of Bobby Ray 6 - Ghost In The Machine - B.o.B.wav

     Peak level 97.7 %
     Track quality 100.0 %
     Test CRC A3B57F60
     Copy CRC A3B57F60
     Track not present in AccurateRip database
     Copy OK

Track  7

     Filename F:B.o.B -  - B.o.B Presents- The Adventures of Bobby Ray 7 - The Kids (feat. Janelle Monįe) - B.o.B.wav

     Peak level 99.8 %
     Track quality 100.0 %
     Test CRC 0F23C965
     Copy CRC 0F23C965
     Track not present in AccurateRip database
     Copy OK

Track  8

     Filename F:B.o.B -  - B.o.B Presents- The Adventures of Bobby Ray 8 - Magic (feat. Rivers Cuomo) - B.o.B.wav

     Peak level 99.8 %
     Track quality 100.0 %
     Test CRC 40E82C9E
     Copy CRC 40E82C9E
     Track not present in AccurateRip database
     Copy OK

Track  9

     Filename F:B.o.B -  - B.o.B Presents- The Adventures of Bobby Ray 9 - Fame - B.o.B.wav

     Peak level 100.0 %
     Track quality 100.0 %
     Test CRC 56C27FD3
     Copy CRC 56C27FD3
     Track not present in AccurateRip database
     Copy OK

Track 10

     Filename F:B.o.B -  - B.o.B Presents- The Adventures of Bobby Ray10 - Lovelier Than You - B.o.B.wav

     Peak level 97.7 %
     Track quality 100.0 %
     Test CRC 3732F707
     Copy CRC 3732F707
     Track not present in AccurateRip database
     Copy OK

Track 11

     Filename F:B.o.B -  - B.o.B Presents- The Adventures of Bobby Ray11 - 5th Dimension (feat. Ricco Barrino) - B.o.B.wav

     Pre-gap length  0:00:01.10

     Peak level 97.7 %
     Track quality 99.9 %
     Test CRC E31B9FF8
     Copy CRC E31B9FF8
     Track not present in AccurateRip database
     Copy OK

Track 12

     Filename F:B.o.B -  - B.o.B Presents- The Adventures of Bobby Ray12 - Airplanes, Part II (feat. Eminem & Hayley Williams of Paramore) - B.o.B.wav

     Peak level 99.8 %
     Track quality 99.9 %
     Test CRC 4F8B12BC
     Copy CRC 4F8B12BC
     Track not present in AccurateRip database
     Copy OK

Track 13

     Filename F:B.o.B -  - B.o.B Presents- The Adventures of Bobby Ray13 - Letters From Vietnam - B.o.B.wav

     Peak level 97.7 %
     Track quality 100.0 %
     Test CRC 2F0A6DBD
     Copy CRC 2F0A6DBD
     Track not present in AccurateRip database
     Copy OK

Track 14

     Filename F:B.o.B -  - B.o.B Presents- The Adventures of Bobby Ray14 - I See Ya - B.o.B.wav

     Peak level 97.7 %
     Track quality 100.0 %
     Test CRC 7397927C
     Copy CRC 7397927C
     Track not present in AccurateRip database
     Copy OK


None of the tracks are present in the AccurateRip database

No errors occurred

End of status report
